<svg id="visual" viewBox="0 0 900 600" width="900" height="600" xmlns="http://www.w3.org/2000/svg" xmlns:xlink="http://www.w3.org/1999/xlink" version="1.1"><path d="M0 73L82 67L164 91L245 85L327 49L409 73L491 103L573 67L655 79L736 67L818 121L900 49L900 0L818 0L736 0L655 0L573 0L491 0L409 0L327 0L245 0L164 0L82 0L0 0Z" fill="#0066ff"></path><path d="M0 289L82 283L164 217L245 187L327 253L409 211L491 235L573 331L655 169L736 265L818 277L900 199L900 47L818 119L736 65L655 77L573 65L491 101L409 71L327 47L245 83L164 89L82 65L0 71Z" fill="#007aff"></path><path d="M0 349L82 379L164 367L245 355L327 415L409 301L491 337L573 421L655 289L736 421L818 337L900 289L900 197L818 275L736 263L655 167L573 329L491 233L409 209L327 251L245 185L164 215L82 281L0 287Z" fill="#008cff"></path><path d="M0 505L82 511L164 511L245 565L327 511L409 535L491 505L573 547L655 517L736 535L818 535L900 505L900 287L818 335L736 419L655 287L573 419L491 335L409 299L327 413L245 353L164 365L82 377L0 347Z" fill="#2b9dfc"></path><path d="M0 601L82 601L164 601L245 601L327 601L409 601L491 601L573 601L655 601L736 601L818 601L900 601L900 503L818 533L736 533L655 515L573 545L491 503L409 533L327 509L245 563L164 509L82 509L0 503Z" fill="#4facf7"></path></svg>